<svg width="175" height="27" viewBox="0 0 175 27" fill="none" xmlns="http://www.w3.org/2000/svg">
<path d="M53.248 7.52912C53.1741 6.78433 52.8571 6.20573 52.297 5.79332C51.7368 5.38092 50.9767 5.17471 50.0164 5.17471C49.364 5.17471 48.8131 5.26704 48.3637 5.4517C47.9144 5.63021 47.5697 5.8795 47.3296 6.19957C47.0957 6.51965 46.9788 6.88281 46.9788 7.28906C46.9665 7.6276 47.0373 7.92306 47.1911 8.17543C47.3512 8.42779 47.5697 8.64631 47.8467 8.83097C48.1237 9.00947 48.4437 9.16643 48.8069 9.30185C49.1701 9.43111 49.5579 9.5419 49.9703 9.63423L51.6691 10.0405C52.4939 10.2251 53.251 10.4714 53.9404 10.7791C54.6298 11.0869 55.2269 11.4654 55.7316 11.9148C56.2364 12.3641 56.6272 12.8935 56.9042 13.5028C57.1874 14.1122 57.332 14.8108 57.3382 15.5987C57.332 16.7559 57.0365 17.7592 56.4518 18.6087C55.8732 19.4519 55.0361 20.1075 53.9404 20.5753C52.8509 21.0369 51.5368 21.2678 49.998 21.2678C48.4714 21.2678 47.1419 21.0339 46.0093 20.5661C44.8829 20.0982 44.0027 19.4058 43.3687 18.4886C42.7409 17.5653 42.4115 16.4235 42.3808 15.0632H46.2494C46.2925 15.6972 46.474 16.2266 46.7941 16.6513C47.1204 17.0698 47.5543 17.3868 48.096 17.6023C48.6438 17.8116 49.2624 17.9162 49.9518 17.9162C50.6289 17.9162 51.2167 17.8177 51.7153 17.6207C52.22 17.4238 52.6109 17.1499 52.8879 16.799C53.1649 16.4482 53.3034 16.045 53.3034 15.5895C53.3034 15.1648 53.1772 14.8078 52.9248 14.5185C52.6786 14.2292 52.3154 13.983 51.8353 13.7798C51.3614 13.5767 50.7797 13.392 50.0903 13.2259L48.0313 12.7088C46.4371 12.321 45.1784 11.7147 44.2551 10.8899C43.3318 10.0651 42.8732 8.95407 42.8794 7.55682C42.8732 6.41193 43.1779 5.41169 43.7934 4.55611C44.4151 3.70052 45.2676 3.03267 46.3509 2.55256C47.4343 2.07244 48.6653 1.83239 50.0441 1.83239C51.4475 1.83239 52.6724 2.07244 53.7188 2.55256C54.7714 3.03267 55.5901 3.70052 56.1748 4.55611C56.7596 5.41169 57.0612 6.4027 57.0796 7.52912H53.248ZM67.4967 6.81818V9.77273H58.9562V6.81818H67.4967ZM60.8952 3.42045H64.8284V16.642C64.8284 17.0052 64.8838 17.2884 64.9946 17.4915C65.1054 17.6884 65.2593 17.8269 65.4562 17.907C65.6594 17.987 65.8933 18.027 66.1579 18.027C66.3426 18.027 66.5273 18.0116 66.7119 17.9808C66.8966 17.9439 67.0381 17.9162 67.1366 17.8977L67.7552 20.8246C67.5583 20.8861 67.2813 20.9569 66.9243 21.0369C66.5673 21.1231 66.1333 21.1754 65.6224 21.1939C64.6745 21.2308 63.8435 21.1046 63.1295 20.8153C62.4217 20.526 61.8708 20.0767 61.4768 19.4673C61.0829 18.858 60.889 18.0885 60.8952 17.1591V3.42045ZM74.1029 21.2678C73.1981 21.2678 72.3917 21.1108 71.6839 20.7969C70.976 20.4768 70.4159 20.0059 70.0035 19.3842C69.5972 18.7564 69.3941 17.9747 69.3941 17.0391C69.3941 16.2512 69.5387 15.5895 69.828 15.054C70.1173 14.5185 70.5113 14.0876 71.0099 13.7614C71.5084 13.4351 72.0747 13.1889 72.7087 13.0227C73.3489 12.8565 74.0198 12.7396 74.7215 12.6719C75.5463 12.5857 76.2111 12.5057 76.7158 12.4318C77.2206 12.3518 77.5868 12.2348 77.8145 12.081C78.0423 11.9271 78.1562 11.6993 78.1562 11.3977V11.3423C78.1562 10.7576 77.9715 10.3052 77.6022 9.98508C77.239 9.66501 76.722 9.50497 76.051 9.50497C75.3432 9.50497 74.78 9.66193 74.3614 9.97585C73.9429 10.2836 73.6659 10.6714 73.5305 11.1392L69.8927 10.8438C70.0773 9.98201 70.4405 9.23722 70.9822 8.60938C71.5238 7.97538 72.2224 7.48911 73.078 7.15057C73.9398 6.80587 74.9369 6.63352 76.0695 6.63352C76.8574 6.63352 77.6114 6.72585 78.3316 6.91051C79.0579 7.09517 79.7011 7.38139 80.2613 7.76918C80.8276 8.15696 81.2738 8.65554 81.6001 9.26491C81.9263 9.86813 82.0894 10.5914 82.0894 11.4347V21H78.3593V19.0334H78.2485C78.0207 19.4766 77.7161 19.8674 77.3344 20.206C76.9528 20.5384 76.4942 20.8 75.9587 20.9908C75.4232 21.1754 74.8046 21.2678 74.1029 21.2678ZM75.2293 18.5533C75.8079 18.5533 76.3188 18.4394 76.762 18.2116C77.2052 17.9777 77.5529 17.6638 77.8053 17.2699C78.0577 16.8759 78.1839 16.4297 78.1839 15.9311V14.4261C78.0608 14.5062 77.8915 14.58 77.676 14.6477C77.4668 14.7093 77.2298 14.7678 76.9651 14.8232C76.7004 14.8724 76.4358 14.9186 76.1711 14.9616C75.9064 14.9986 75.6663 15.0324 75.4509 15.0632C74.9893 15.1309 74.5861 15.2386 74.2414 15.3864C73.8967 15.5341 73.6289 15.7341 73.4381 15.9865C73.2473 16.2327 73.1519 16.5405 73.1519 16.9098C73.1519 17.4453 73.3458 17.8546 73.7336 18.1378C74.1275 18.4148 74.6261 18.5533 75.2293 18.5533ZM85.1409 21V6.81818H88.9541V9.29261H89.1018C89.3604 8.4124 89.7943 7.74763 90.4037 7.2983C91.0131 6.8428 91.7148 6.61506 92.5088 6.61506C92.7058 6.61506 92.9181 6.62737 93.1459 6.65199C93.3736 6.67661 93.5737 6.71046 93.746 6.75355V10.2436C93.5613 10.1882 93.3059 10.139 92.9797 10.0959C92.6534 10.0528 92.3549 10.0312 92.0841 10.0312C91.5055 10.0312 90.9884 10.1574 90.5329 10.4098C90.0836 10.656 89.7266 11.0007 89.4619 11.4439C89.2034 11.8871 89.0741 12.398 89.0741 12.9766V21H85.1409ZM104.034 6.81818V9.77273H95.4933V6.81818H104.034ZM97.4323 3.42045H101.366V16.642C101.366 17.0052 101.421 17.2884 101.532 17.4915C101.642 17.6884 101.796 17.8269 101.993 17.907C102.196 17.987 102.43 18.027 102.695 18.027C102.88 18.027 103.064 18.0116 103.249 17.9808C103.434 17.9439 103.575 17.9162 103.674 17.8977L104.292 20.8246C104.095 20.8861 103.818 20.9569 103.461 21.0369C103.104 21.1231 102.67 21.1754 102.16 21.1939C101.212 21.2308 100.381 21.1046 99.6666 20.8153C98.9588 20.526 98.4079 20.0767 98.0139 19.4673C97.62 18.858 97.4261 18.0885 97.4323 17.1591V3.42045ZM115.69 14.9616V6.81818H119.624V21H115.847V18.424H115.7C115.38 19.255 114.847 19.9228 114.102 20.4276C113.364 20.9323 112.462 21.1847 111.397 21.1847C110.449 21.1847 109.615 20.9692 108.895 20.5384C108.175 20.1075 107.612 19.495 107.205 18.701C106.805 17.907 106.602 16.956 106.596 15.848V6.81818H110.529V15.1463C110.535 15.9834 110.76 16.6451 111.203 17.1314C111.646 17.6177 112.24 17.8608 112.985 17.8608C113.459 17.8608 113.902 17.7531 114.315 17.5376C114.727 17.3161 115.06 16.9898 115.312 16.5589C115.57 16.1281 115.697 15.5956 115.69 14.9616ZM122.77 26.3182V6.81818H126.648V9.20028H126.823C126.995 8.81865 127.245 8.43087 127.571 8.03693C127.903 7.63684 128.334 7.30445 128.864 7.03977C129.399 6.76894 130.064 6.63352 130.858 6.63352C131.892 6.63352 132.846 6.90436 133.72 7.44602C134.594 7.98153 135.293 8.79096 135.816 9.87429C136.339 10.9515 136.601 12.3026 136.601 13.9276C136.601 15.5095 136.345 16.8452 135.834 17.9347C135.33 19.018 134.64 19.8397 133.766 20.3999C132.898 20.9538 131.926 21.2308 130.849 21.2308C130.085 21.2308 129.436 21.1046 128.9 20.8523C128.371 20.5999 127.937 20.2829 127.599 19.9013C127.26 19.5135 127.002 19.1226 126.823 18.7287H126.703V26.3182H122.77ZM126.62 13.9091C126.62 14.7524 126.737 15.4879 126.971 16.1158C127.205 16.7436 127.543 17.233 127.986 17.5838C128.43 17.9285 128.968 18.1009 129.602 18.1009C130.242 18.1009 130.784 17.9254 131.227 17.5746C131.67 17.2176 132.006 16.7251 132.234 16.0973C132.467 15.4633 132.584 14.7339 132.584 13.9091C132.584 13.0904 132.471 12.3703 132.243 11.7486C132.015 11.1269 131.68 10.6406 131.236 10.2898C130.793 9.93892 130.248 9.76349 129.602 9.76349C128.962 9.76349 128.42 9.93276 127.977 10.2713C127.54 10.6098 127.205 11.09 126.971 11.7116C126.737 12.3333 126.62 13.0658 126.62 13.9091Z" fill="#121723"/>
<path d="M143 9C143 5.68629 145.686 3 149 3H168C171.866 3 175 6.13401 175 10V14C175 17.866 171.866 21 168 21H143V9Z" fill="#4A6CF7"/>
<path d="M149 15.8935V8.10646H151.946C152.55 8.10646 153.056 8.218 153.466 8.44106C153.877 8.66413 154.188 8.97085 154.398 9.36122C154.61 9.74905 154.716 10.1901 154.716 10.6844C154.716 11.1838 154.61 11.6274 154.398 12.0152C154.186 12.403 153.872 12.7085 153.458 12.9316C153.044 13.1521 152.533 13.2624 151.927 13.2624H149.974V12.1027H151.735C152.088 12.1027 152.377 12.0418 152.602 11.9202C152.828 11.7985 152.994 11.6312 153.101 11.4183C153.211 11.2053 153.266 10.9607 153.266 10.6844C153.266 10.4081 153.211 10.1648 153.101 9.95437C152.994 9.74398 152.826 9.58048 152.599 9.46388C152.374 9.34474 152.083 9.28517 151.728 9.28517H150.423V15.8935H149Z" fill="white"/>
<path d="M155.953 15.8935V8.10646H158.899C159.503 8.10646 160.009 8.21039 160.418 8.41825C160.83 8.62611 161.141 8.91762 161.351 9.29278C161.563 9.6654 161.669 10.1001 161.669 10.597C161.669 11.0963 161.562 11.5298 161.347 11.8973C161.135 12.2624 160.821 12.545 160.407 12.7452C159.993 12.943 159.484 13.0418 158.88 13.0418H156.781V11.8707H158.688C159.041 11.8707 159.33 11.8226 159.555 11.7262C159.78 11.6274 159.946 11.4842 160.054 11.2966C160.164 11.1065 160.219 10.8733 160.219 10.597C160.219 10.3207 160.164 10.0849 160.054 9.88973C159.944 9.69202 159.776 9.54246 159.551 9.44106C159.326 9.33714 159.036 9.28517 158.68 9.28517H157.376V15.8935H155.953ZM160.012 12.365L161.957 15.8935H160.368L158.458 12.365H160.012Z" fill="white"/>
<path d="M170 12C170 12.839 169.841 13.5577 169.524 14.1559C169.21 14.7516 168.78 15.2079 168.235 15.5247C167.693 15.8416 167.078 16 166.39 16C165.702 16 165.085 15.8416 164.541 15.5247C163.998 15.2053 163.569 14.7478 163.252 14.1521C162.937 13.5539 162.78 12.8365 162.78 12C162.78 11.161 162.937 10.4436 163.252 9.84791C163.569 9.24968 163.998 8.79214 164.541 8.47528C165.085 8.15843 165.702 8 166.39 8C167.078 8 167.693 8.15843 168.235 8.47528C168.78 8.79214 169.21 9.24968 169.524 9.84791C169.841 10.4436 170 11.161 170 12ZM168.569 12C168.569 11.4094 168.476 10.9113 168.289 10.5057C168.105 10.0976 167.849 9.78961 167.522 9.58175C167.194 9.37136 166.817 9.26616 166.39 9.26616C165.963 9.26616 165.585 9.37136 165.258 9.58175C164.931 9.78961 164.674 10.0976 164.487 10.5057C164.303 10.9113 164.211 11.4094 164.211 12C164.211 12.5906 164.303 13.09 164.487 13.4981C164.674 13.9037 164.931 14.2117 165.258 14.4221C165.585 14.6299 165.963 14.7338 166.39 14.7338C166.817 14.7338 167.194 14.6299 167.522 14.4221C167.849 14.2117 168.105 13.9037 168.289 13.4981C168.476 13.09 168.569 12.5906 168.569 12Z" fill="white"/>
<path d="M0 0C13.8071 0 25 11.1929 25 25H2C0.89543 25 0 24.1046 0 23V0Z" fill="#4A6CF7"/>
<path opacity="0.5" d="M6 25C6 11.1929 17.1929 0 31 0V23C31 24.1046 30.1046 25 29 25H6Z" fill="#4A6CF7"/>
</svg>
